<?xml version="1.0" standalone="no"?>
<!DOCTYPE svg PUBLIC "-//W3C//DTD SVG 20010904//EN"
 "http://www.w3.org/TR/2001/REC-SVG-20010904/DTD/svg10.dtd">
<svg version="1.0" xmlns="http://www.w3.org/2000/svg"
 width="5120.000000pt" height="5120.000000pt" viewBox="0 0 5120.000000 5120.000000"
 preserveAspectRatio="xMidYMid meet">

<g transform="translate(0.000000,5120.000000) scale(0.100000,-0.100000)"
fill="#000000" stroke="none">
<path d="M14760 37659 c-124 -4 -313 -15 -420 -25 -181 -16 -467 -18 -3890
-24 -3789 -7 -3753 -6 -4050 -45 -254 -34 -431 -55 -545 -66 -80 -8 -603 -14
-1565 -19 -1247 -6 -1465 -10 -1590 -24 -532 -61 -898 -218 -1207 -519 -232
-226 -399 -489 -487 -766 -39 -123 -43 -150 -24 -169 19 -19 29761 -17 29777
2 8 10 8 16 -1 24 -29 23 -570 313 -808 432 -140 70 -381 185 -535 255 -154
70 -442 206 -640 302 -562 274 -715 340 -1012 439 -286 94 -579 158 -908 196
-115 13 -11705 20 -12095 7z"/>
<path d="M993 35163 c-28 -11 -9 -110 55 -293 50 -143 156 -348 241 -468 242
-338 500 -524 1244 -893 l179 -89 4524 0 4523 0 261 65 c220 55 540 124 760
164 30 6 100 20 155 31 113 24 216 42 355 65 52 8 120 20 150 25 30 5 147 16
260 25 300 23 438 35 505 45 33 5 101 14 150 21 50 6 151 23 225 36 522 94
325 87 2450 91 1311 2 1921 0 2055 -8 168 -10 540 -52 576 -65 24 -8 429 -64
544 -74 226 -21 365 -31 525 -36 331 -11 514 -30 945 -94 72 -11 177 -25 235
-31 257 -27 366 -42 685 -96 116 -19 235 -39 265 -44 30 -5 98 -16 150 -25
103 -17 331 -49 475 -65 49 -6 118 -15 155 -20 77 -11 12215 -12 12244 -1 18
7 18 8 1 25 -10 9 -356 186 -769 393 -413 206 -899 453 -1081 549 -181 95
-476 242 -655 327 -179 85 -457 220 -618 301 l-293 146 -15732 -1 c-8653 0
-15738 -3 -15744 -6z"/>
<path d="M4401 32586 c-8 -10 -8 -16 1 -23 7 -5 132 -71 278 -146 146 -75 351
-181 455 -237 283 -151 955 -482 1250 -615 143 -65 393 -183 555 -262 162 -80
349 -170 415 -200 358 -161 588 -171 848 -36 112 58 266 218 471 493 215 286
270 352 397 475 124 119 278 238 527 404 131 88 182 127 180 139 -3 16 -189
17 -2684 20 -2260 2 -2683 0 -2693 -12z"/>
<path d="M14260 32593 c-385 -33 -565 -69 -1420 -284 -447 -113 -597 -154
-755 -206 -135 -45 -416 -156 -560 -223 -72 -34 -98 -45 -500 -225 -547 -244
-752 -369 -1085 -663 -107 -95 -117 -107 -100 -128 18 -21 19241 -22 19259 0
9 11 2 18 -38 35 -27 11 -73 27 -103 35 -29 8 -123 37 -208 65 -340 113 -442
140 -1700 455 -1155 289 -1266 315 -1500 361 -64 12 -145 30 -550 120 -113 25
-275 59 -360 75 -243 46 -408 79 -635 125 -115 24 -291 58 -390 75 -99 17
-283 51 -410 75 -318 60 -540 94 -755 115 -143 14 -300 37 -455 66 -359 68
-479 88 -665 111 -123 16 -433 17 -3580 18 -1895 1 -3465 0 -3490 -2z"/>
<path d="M27570 32590 c-8 -5 -11 -12 -8 -16 8 -7 238 -84 253 -84 5 0 71 -18
145 -39 74 -22 196 -56 270 -76 344 -92 534 -150 1065 -324 858 -282 920 -302
1485 -460 229 -64 428 -130 550 -181 139 -59 324 -131 540 -211 118 -43 238
-88 265 -99 28 -11 82 -31 120 -44 77 -26 294 -114 420 -170 l80 -36 4092 0
c2967 0 4094 3 4099 11 11 18 -26 44 -136 94 -456 207 -1386 673 -1963 984
-125 68 -366 189 -535 270 -324 156 -470 230 -642 327 l-105 59 -4990 2
c-3071 2 -4996 -1 -5005 -7z"/>
<path d="M9226 30019 c-39 -23 -136 -268 -209 -530 -77 -273 -100 -372 -90
-388 9 -15 800 -17 8399 -21 7737 -5 8395 -7 8460 -22 379 -87 692 -306 965
-674 38 -50 75 -94 84 -98 25 -9 8308 -7 8322 2 22 14 -4 35 -157 127 -303
184 -458 268 -955 515 -453 225 -687 332 -970 442 -220 85 -459 182 -625 253
-69 30 -186 79 -260 110 -421 177 -572 241 -635 266 l-70 28 -11120 0 c-7983
0 -11125 -3 -11139 -10z"/>
<path d="M34656 30021 c-17 -7 -16 -9 11 -29 17 -12 34 -22 37 -22 32 0 550
-254 936 -458 306 -162 1019 -573 1135 -655 11 -8 81 -49 155 -91 197 -113
390 -234 665 -415 l100 -66 4115 -3 c2263 -1 4129 0 4147 3 22 4 30 10 27 19
-3 8 -96 61 -207 119 -111 58 -299 158 -417 222 -280 153 -508 266 -815 406
-137 62 -640 308 -1117 546 l-866 433 -3944 -1 c-2168 0 -3952 -4 -3962 -8z"/>
<path d="M14350 28065 l0 -784 -62 43 c-206 143 -349 193 -588 203 -309 14
-567 -67 -806 -253 -447 -346 -652 -985 -558 -1734 28 -224 83 -408 180 -605
72 -147 136 -238 239 -340 276 -275 679 -354 1097 -215 167 56 321 152 483
303 l71 65 43 -136 c47 -151 71 -191 134 -225 41 -21 52 -22 370 -25 l327 -3
0 2245 0 2246 -465 0 -465 0 0 -785z m-305 -1242 c89 -22 177 -69 245 -130
l60 -55 0 -660 0 -660 -37 -45 c-50 -61 -160 -145 -237 -182 -146 -69 -374
-82 -491 -28 -185 86 -279 295 -307 680 -30 430 52 784 223 957 131 134 326
178 544 123z"/>
<path d="M3286 28722 c-2 -4 -306 -786 -674 -1737 -369 -952 -745 -1923 -837
-2160 -92 -236 -170 -438 -172 -447 -5 -17 19 -18 415 -18 393 0 424 1 485 20
79 25 163 95 199 168 13 26 79 215 148 419 l125 373 831 0 831 0 128 -377 c71
-208 138 -398 151 -423 30 -62 88 -118 154 -149 l55 -26 447 -3 448 -3 -9 23
c-5 13 -311 804 -681 1758 -369 954 -746 1927 -837 2163 l-166 427 -518 0
c-285 0 -520 -3 -523 -8z m820 -1802 c158 -476 289 -871 292 -877 3 -10 -119
-13 -592 -13 l-595 0 211 623 c116 342 234 691 263 776 29 84 68 207 87 272
21 78 35 113 40 102 3 -10 136 -407 294 -883z"/>
<path d="M10445 27523 c-414 -36 -784 -179 -1088 -422 l-78 -62 26 -42 c14
-23 53 -91 88 -151 115 -201 186 -256 332 -256 105 0 135 9 295 90 167 83 255
115 354 129 282 39 466 -39 536 -228 12 -30 25 -76 30 -101 13 -69 22 -283 13
-297 -6 -8 -79 -16 -218 -23 -482 -25 -777 -94 -1086 -252 -251 -128 -392
-280 -470 -505 -33 -96 -34 -101 -33 -258 1 -143 4 -169 28 -250 43 -142 98
-238 191 -331 170 -171 388 -247 705 -247 177 0 267 11 395 48 166 48 303 124
491 271 53 42 100 72 103 67 4 -4 24 -52 45 -106 47 -122 86 -174 151 -207 49
-25 55 -25 328 -28 l278 -4 -4 1079 c-3 1062 -3 1079 -24 1168 -46 192 -114
345 -207 470 -183 243 -446 394 -771 440 -90 13 -305 17 -410 8z m505 -2052
c0 -81 3 -176 6 -209 l7 -62 -44 -41 c-106 -99 -221 -171 -329 -204 -84 -25
-279 -32 -360 -11 -134 34 -191 104 -198 242 -6 106 14 168 73 228 117 120
409 199 763 205 l82 1 0 -149z"/>
<path d="M7518 27509 c-319 -31 -602 -146 -840 -343 -215 -178 -397 -495 -464
-811 -57 -267 -57 -630 1 -880 46 -199 133 -406 232 -551 174 -258 416 -442
706 -539 155 -51 266 -68 457 -68 403 0 704 83 987 272 89 60 283 233 283 253
0 15 -265 342 -301 372 -41 35 -94 49 -154 43 -63 -6 -101 -26 -225 -117 -55
-40 -128 -83 -175 -102 -79 -32 -82 -33 -240 -33 -150 1 -164 2 -228 27 -158
63 -271 181 -347 364 -85 204 -111 538 -65 820 54 335 216 541 471 600 86 19
270 19 346 -1 73 -19 167 -61 288 -130 105 -59 162 -73 229 -55 60 16 101 57
251 255 l133 175 -63 58 c-200 182 -457 315 -710 366 -161 32 -391 42 -572 25z"/>
<path d="M17146 27509 c-207 -22 -367 -68 -536 -155 -448 -229 -730 -640 -800
-1167 -13 -101 -13 -331 1 -455 24 -226 75 -404 169 -596 278 -570 847 -867
1562 -816 363 25 645 115 904 288 84 56 264 219 264 239 0 4 -67 89 -148 188
-161 198 -196 225 -282 225 -70 0 -134 -23 -292 -104 -236 -120 -364 -153
-568 -143 -177 8 -294 48 -418 142 -135 102 -235 305 -267 543 l-7 52 920 0
c506 0 934 3 952 6 43 9 95 60 110 109 18 59 24 313 10 435 -81 699 -534 1147
-1225 1210 -125 11 -235 11 -349 -1z m364 -651 c82 -19 167 -66 227 -126 91
-90 141 -210 157 -379 l6 -63 -580 0 c-410 0 -580 3 -580 11 0 37 47 187 81
257 49 102 143 205 226 250 54 28 135 54 208 65 43 7 202 -2 255 -15z"/>
<path d="M23542 27509 c-293 -24 -575 -124 -802 -284 -281 -198 -487 -524
-564 -895 -52 -249 -52 -571 0 -820 127 -610 557 -1037 1169 -1159 161 -33
362 -44 527 -32 420 33 739 171 999 430 294 295 439 681 439 1171 0 304 -50
543 -161 775 -229 479 -673 768 -1253 815 -144 11 -204 11 -354 -1z m378 -704
c130 -39 250 -135 312 -250 75 -140 108 -303 115 -567 9 -313 -22 -515 -103
-683 -113 -233 -353 -341 -643 -291 -261 46 -407 210 -476 536 -24 114 -35
353 -24 516 20 298 83 480 212 612 59 60 160 114 247 131 30 6 64 13 75 15 41
10 232 -3 285 -19z"/>
<path d="M18823 27453 c3 -13 1156 -2985 1194 -3080 4 -10 99 -13 428 -13
l423 0 40 103 c219 561 1162 2998 1162 3002 0 3 -183 5 -407 3 -375 -3 -411
-4 -443 -22 -44 -23 -97 -73 -115 -106 -14 -27 -390 -1185 -501 -1545 -36
-115 -83 -277 -104 -359 -22 -82 -41 -150 -43 -152 -2 -2 -12 31 -21 74 -39
164 -400 1366 -588 1951 -6 18 -31 55 -57 81 -76 79 -86 80 -564 80 -385 0
-409 -1 -404 -17z"/>
<path d="M27219 27444 c-10 -13 -10 -26 0 -72 76 -346 96 -486 113 -779 13
-222 3 -479 -28 -721 -13 -106 -14 -135 -4 -147 11 -13 640 -15 5675 -15 3115
0 5670 3 5679 6 29 11 17 34 -56 102 -39 37 -171 164 -292 283 -331 323 -539
513 -792 725 -52 43 -195 151 -327 247 -113 83 -429 295 -513 345 l-70 42
-4686 0 c-4259 0 -4687 -1 -4699 -16z"/>
<path d="M38892 27447 c-14 -17 -12 -19 93 -111 112 -98 340 -305 455 -411 47
-44 155 -143 240 -220 348 -315 565 -548 833 -896 37 -48 74 -90 83 -93 8 -3
2143 -6 4744 -6 4342 0 4729 1 4741 16 11 14 9 25 -20 78 -185 335 -467 636
-781 836 -157 100 -381 219 -982 520 l-597 300 -4399 0 c-3569 0 -4402 -2
-4410 -13z"/>
<path d="M27038 24878 c-8 -7 -43 -67 -78 -133 -259 -497 -618 -838 -1022
-969 -122 -40 -207 -55 -383 -69 -84 -6 -3250 -12 -9022 -16 -6136 -4 -8895
-9 -8902 -16 -11 -11 -78 -303 -102 -443 -11 -63 -10 -75 2 -83 8 -5 6650 -8
16338 -6 15179 2 16325 3 16334 19 13 19 -7 118 -60 308 -103 366 -233 691
-388 971 -76 137 -260 414 -288 434 -19 13 -688 15 -6217 15 -4942 0 -6199 -3
-6212 -12z"/>
<path d="M41100 24880 c-17 -11 -13 -22 80 -250 99 -241 170 -480 275 -925 54
-229 129 -397 225 -505 l49 -55 3693 -3 c2031 -1 3711 0 3734 3 55 8 282 133
418 230 135 97 318 280 413 413 210 294 334 633 358 983 5 72 3 89 -10 103
-15 15 -396 16 -4618 16 -2904 0 -4608 -4 -4617 -10z"/>
<path d="M7328 22303 c-9 -10 -37 -108 -62 -218 -50 -213 -184 -776 -217 -911
-33 -135 -89 -483 -89 -550 0 -12 7 -30 16 -38 14 -15 103 -16 897 -14 l882 3
131 62 c205 97 552 237 741 299 494 163 956 271 1838 430 157 28 497 75 785
109 69 8 186 24 260 35 416 64 648 80 1220 81 239 0 541 4 670 9 495 20 815
23 1055 11 132 -7 555 -16 940 -21 660 -8 713 -10 925 -34 124 -15 232 -29
240 -31 35 -11 379 -55 540 -69 96 -9 218 -21 270 -26 52 -6 160 -15 240 -20
211 -15 435 -44 875 -114 177 -29 289 -44 399 -56 218 -24 424 -55 662 -101
83 -16 207 -38 275 -49 68 -12 149 -25 179 -30 30 -6 116 -19 192 -30 200 -30
385 -68 837 -176 57 -14 136 -31 175 -39 39 -8 166 -35 281 -60 116 -25 288
-61 384 -80 95 -20 232 -50 305 -68 l131 -32 8257 -3 8257 -2 20 26 c12 15 21
33 21 41 0 12 27 129 110 478 10 44 32 139 49 210 192 825 217 949 191 980
-11 13 -1977 15 -16440 15 -15632 0 -16428 -1 -16442 -17z"/>
<path d="M49145 22220 c-140 -21 -308 -75 -465 -148 -173 -80 -285 -162 -379
-278 -78 -96 -112 -159 -155 -286 -51 -148 -66 -289 -66 -610 0 -250 5 -303
33 -320 7 -4 402 -8 879 -8 800 0 868 1 883 17 16 15 17 54 12 467 -5 498 -14
587 -75 767 -102 299 -350 447 -667 399z"/>
<path d="M26485 19741 c-18 -7 -18 -9 6 -24 14 -9 388 -138 833 -287 444 -149
864 -292 934 -319 138 -54 436 -177 572 -236 47 -21 128 -55 180 -75 80 -32
279 -116 590 -249 36 -16 155 -68 265 -115 110 -48 274 -117 365 -153 274
-108 399 -158 548 -222 l142 -61 4144 0 c3933 0 4144 1 4159 18 18 20 427
1645 427 1699 0 11 -7 24 -16 27 -23 9 -13126 6 -13149 -3z"/>
<path d="M48106 19734 c-14 -14 -16 -105 -16 -859 0 -754 2 -845 16 -859 14
-14 112 -16 933 -16 817 0 920 2 931 15 11 13 8 61 -18 268 -52 411 -60 563
-61 1119 -1 274 -3 319 -17 332 -14 14 -108 16 -884 16 -776 0 -870 -2 -884
-16z"/>
<path d="M32601 17166 c-14 -16 17 -40 203 -156 65 -41 260 -167 433 -280 172
-113 393 -252 491 -310 497 -294 523 -311 877 -576 119 -89 275 -212 398 -315
l118 -99 1730 0 c1131 0 1737 3 1749 10 12 6 23 30 30 67 12 59 104 437 234
963 150 609 164 673 146 695 -11 13 -390 15 -3205 15 -2709 0 -3194 -2 -3204
-14z"/>
<path d="M48106 17164 c-14 -13 -16 -53 -16 -278 0 -391 -28 -611 -109 -853
-41 -123 -66 -184 -174 -426 -48 -109 -59 -142 -50 -155 9 -16 98 -17 1244
-17 l1234 0 3 23 c2 13 -10 55 -26 95 -89 213 -148 431 -172 632 -6 50 -14
287 -17 528 -5 360 -9 441 -20 453 -12 12 -155 14 -948 14 -835 0 -935 -2
-949 -16z"/>
<path d="M36057 14603 c-18 -18 4 -47 141 -187 283 -290 453 -532 714 -1016
61 -113 116 -212 123 -220 6 -8 32 -49 58 -92 64 -107 133 -200 160 -215 28
-16 618 -18 647 -3 36 19 109 171 184 387 55 157 118 387 191 703 15 63 39
169 55 235 90 380 92 398 64 409 -22 8 -2329 8 -2337 -1z"/>
<path d="M47467 14597 c-37 -26 -88 -320 -109 -622 -6 -93 -11 -296 -11 -450
1 -367 23 -603 61 -647 14 -17 103 -18 1604 -18 1575 0 1588 0 1608 20 11 11
20 23 20 28 0 4 9 61 20 127 43 265 35 584 -26 1070 -43 346 -65 456 -96 487
-17 17 -81 18 -1536 18 -1206 0 -1522 -3 -1535 -13z"/>
<path d="M47973 12024 c-8 -22 9 -34 140 -100 210 -106 447 -168 741 -194 343
-30 796 61 1108 222 73 38 95 59 82 79 -3 5 -427 9 -1035 9 -946 0 -1030 -1
-1036 -16z"/>
</g>
</svg>
